<?xml version="1.0" standalone="no"?>
<!DOCTYPE svg PUBLIC "-//W3C//DTD SVG 20010904//EN"
 "http://www.w3.org/TR/2001/REC-SVG-20010904/DTD/svg10.dtd">
<svg version="1.0" xmlns="http://www.w3.org/2000/svg"
 width="4675.000000pt" height="4675.000000pt" viewBox="0 0 4675.000000 4675.000000"
 preserveAspectRatio="xMidYMid meet">

<g transform="translate(0.000000,4675.000000) scale(0.100000,-0.100000)"
fill="#000000" stroke="none">
<path d="M11340 26650 l0 -5970 330 0 c182 0 330 -2 330 -3 0 -2 -148 -460
-330 -1018 -181 -557 -330 -1017 -330 -1021 0 -9 -74 15 3765 -1233 1638 -533
2135 -694 2305 -750 107 -35 755 -246 1440 -469 3024 -983 5035 -1637 5415
-1761 226 -74 973 -317 1660 -540 688 -224 1365 -444 1505 -490 3084 -1005
6202 -2016 6206 -2013 2 3 142 427 310 944 653 2007 1256 3860 1715 5274 264
811 511 1570 549 1685 37 116 125 386 195 600 70 215 162 498 205 630 43 132
139 427 213 655 75 228 217 667 318 975 100 308 182 566 183 574 1 10 -356
130 -1264 426 l-1265 411 -3 4532 -2 4532 -11725 0 -11725 0 0 -5970z m19910
5063 c0 -887 421 -1680 1146 -2162 419 -279 847 -411 1382 -428 l202 -6 0
-2464 0 -2463 -57 0 c-248 -1 -513 -29 -708 -75 -778 -182 -1459 -760 -1763
-1495 -130 -314 -188 -590 -199 -952 l-6 -208 -8187 0 -8187 0 -6 213 c-8 307
-40 495 -128 762 -295 893 -1079 1561 -2009 1715 -114 19 -388 39 -532 40
l-58 0 0 2463 0 2464 203 6 c445 15 781 99 1142 286 596 309 1041 829 1256
1468 82 245 118 462 126 756 l6 217 8188 0 8189 0 0 -137z m-7903 -11076 c94
-66 243 -157 324 -198 34 -17 58 -35 56 -42 -2 -7 -85 -258 -183 -559 l-178
-547 -30 22 c-59 41 -233 223 -303 317 -93 124 -160 235 -240 398 -45 92 -75
140 -97 156 -108 81 -162 80 -572 -12 -342 -76 -371 -88 -414 -164 -36 -64
-32 -131 14 -253 90 -237 221 -473 380 -686 236 -315 496 -543 842 -738 l92
-51 -76 -227 c-64 -195 -75 -238 -76 -298 0 -61 4 -79 30 -125 46 -83 86 -104
374 -200 236 -79 261 -85 336 -85 72 0 86 3 130 30 76 47 101 95 183 345 40
124 76 229 81 233 4 5 66 1 136 -9 176 -24 525 -24 685 -1 532 79 921 301
1164 666 241 362 323 794 220 1159 -33 114 -137 323 -222 442 -75 105 -313
349 -411 420 -33 25 -61 49 -62 53 0 4 1907 5 4237 2 l4237 -6 79 -105 c43
-57 128 -156 190 -220 305 -318 644 -529 1080 -674 83 -27 127 -46 124 -54 -3
-7 -172 -527 -377 -1156 -204 -630 -409 -1260 -455 -1400 -105 -320 -451
-1383 -586 -1800 -56 -173 -103 -317 -105 -319 -2 -2 -71 17 -153 43 -308 97
-559 132 -879 123 -226 -6 -346 -23 -557 -77 -670 -171 -1250 -614 -1590
-1215 -78 -137 -148 -295 -206 -466 -29 -85 -54 -156 -56 -159 -2 -2 -81 21
-176 52 -95 31 -644 210 -1222 398 -577 188 -1138 370 -1245 405 -202 66
-1118 364 -1840 598 -488 159 -2372 772 -2940 957 -217 71 -874 284 -1460 475
-586 190 -1243 404 -1460 475 -335 109 -1692 550 -2310 751 -102 33 -286 93
-410 134 -460 150 -1599 520 -2212 720 -164 53 -298 97 -298 99 0 1 14 42 30
92 50 144 98 342 121 496 26 170 31 493 10 653 -49 385 -181 757 -375 1063
-36 57 -66 107 -66 110 0 4 1937 8 4305 10 l4304 3 78 -54z m1438 -761 c172
-172 200 -364 87 -581 -49 -93 -138 -180 -233 -228 -74 -37 -208 -77 -260 -77
l-28 0 44 133 c24 72 96 293 160 490 134 412 109 384 230 263z"/>
<path d="M22759 30056 c-80 -28 -140 -82 -171 -153 -9 -19 -14 -119 -18 -322
l-5 -294 -120 -23 c-243 -45 -419 -101 -625 -200 -623 -300 -930 -732 -930
-1309 0 -378 129 -691 399 -968 268 -276 637 -456 1136 -555 l140 -28 3 -583
2 -583 -27 7 c-51 12 -233 104 -320 160 -145 95 -251 182 -392 323 -138 139
-164 157 -247 167 -80 10 -149 -19 -440 -190 -274 -161 -336 -205 -360 -262
-19 -45 -17 -120 5 -168 29 -62 177 -239 295 -353 421 -405 904 -654 1448
-746 l37 -7 3 -273 3 -273 30 -48 c35 -57 100 -110 153 -125 22 -6 161 -10
337 -10 294 0 301 1 350 24 60 28 127 99 143 154 8 26 12 128 12 295 l0 256
38 6 c310 53 550 129 781 245 502 252 797 607 903 1087 18 83 21 132 22 318 1
239 -6 296 -55 449 -65 199 -165 352 -342 522 -277 267 -677 453 -1162 540
-77 13 -150 27 -162 30 l-23 4 0 465 c0 378 2 465 13 465 21 0 179 -98 254
-157 184 -145 275 -171 415 -120 72 26 614 362 670 416 73 68 87 172 34 251
-13 19 -72 83 -131 142 -330 332 -679 516 -1190 630 l-60 13 -5 305 c-5 291
-6 307 -27 346 -30 57 -97 111 -157 129 -67 20 -602 21 -657 1z m-189 -2341
c0 -228 -3 -415 -6 -415 -3 0 -37 16 -76 37 -102 53 -161 111 -205 201 -37 73
-38 80 -38 181 0 95 3 112 27 164 36 76 123 161 213 209 39 21 73 38 78 38 4
0 7 -187 7 -415z m1191 -1701 c125 -66 213 -177 240 -306 15 -70 5 -208 -20
-282 -41 -118 -117 -215 -221 -286 -61 -41 -133 -80 -150 -80 -11 0 -15 1001
-4 1013 8 8 75 -17 155 -59z"/>
</g>
</svg>
